# xmcd
#
# Track frame offsets:
#   150
#   14539
#   29929
#   44618
#   81253
#   94936
#   112355
#   122489
#   136733
#   151883
#   170241
#   183838
#   196425
#   196944
#   197462
#   197980
#   198499
#   199017
#   199535
#   200054
#   200572
#   201090
#   201609
#   202127
#   202645
#   203164
#   203682
#   204200
#   204719
#   205237
#   205755
#   206274
#   206792
#   207310
#   207829
#   208347
#   208865
#   209384
#   209902
#   210420
#   210939
#   211457
#   211975
#   212494
#   213012
#   213530
#   214049
#   214567
#   215085
#   215603
#   216122
#   216640
#   217158
#   217677
#   218195
#   218713
#   219232
#   219750
#   220268
#   220787
#   221305
#   221823
#   222342
#   222860
#   223378
#   223897
#   224415
#   224933
#   225452
#
# Disc length: 3186 seconds
#
# Revision: 0
# Processed by: cddbd v1.5.2PL0 Copyright (c) Steve Scherf et al.
# Submitted via: Media_Universe 3.0
#
DISCID=cf0c7045
DTITLE=Various Artist - Schuine Cafe Hits cd 2
DYEAR=1990
DGENRE=Folk
TTITLE0=De Dikke Lul Band - Op Je Ballen Naar De Wallen
TTITLE1=E Rexy - Wost Worst
TTITLE2=Kapelaan Rubbermans - Oh Oh
TTITLE3=De Natte Spuitgasten - Sexpolonaise
TTITLE4=Kim Blaasvinger - Chinees Bordeel
TTITLE5=Dj Kotzi - Geile Anton Uit Tirol
TTITLE6=De Kwast - Potloodventer
TTITLE7=Wilde Harrie - Stijf Pikkie
TTITLE8=Rukwerk - Je Zoog Hard Aan Mij
TTITLE9=De Dikke Lul Band - Mijn Meesteres
TTITLE10=Jop En Zijn Blaaspop - Antoinette
TTITLE11=Altijd Hitsig - Verdomt Je Neukt Hier nooit Alleen
TTITLE12=
TTITLE13=
TTITLE14=
TTITLE15=
TTITLE16=
TTITLE17=
TTITLE18=
TTITLE19=Naamloze track
TTITLE20=Naamloze track
TTITLE21=Naamloze track
TTITLE22=Naamloze track
TTITLE23=Naamloze track
TTITLE24=Naamloze track
TTITLE25=Naamloze track
TTITLE26=Naamloze track
TTITLE27=Naamloze track
TTITLE28=Naamloze track
TTITLE29=Naamloze track
TTITLE30=Naamloze track
TTITLE31=Naamloze track
TTITLE32=Naamloze track
TTITLE33=Naamloze track
TTITLE34=Naamloze track
TTITLE35=Naamloze track
TTITLE36=Naamloze track
TTITLE37=Naamloze track
TTITLE38=Naamloze track
TTITLE39=Naamloze track
TTITLE40=Naamloze track
TTITLE41=Naamloze track
TTITLE42=Naamloze track
TTITLE43=Naamloze track
TTITLE44=Naamloze track
TTITLE45=Naamloze track
TTITLE46=Naamloze track
TTITLE47=Naamloze track
TTITLE48=Naamloze track
TTITLE49=Naamloze track
TTITLE50=Naamloze track
TTITLE51=Naamloze track
TTITLE52=Naamloze track
TTITLE53=Naamloze track
TTITLE54=Naamloze track
TTITLE55=Naamloze track
TTITLE56=Naamloze track
TTITLE57=Naamloze track
TTITLE58=Naamloze track
TTITLE59=Naamloze track
TTITLE60=Naamloze track
TTITLE61=Naamloze track
TTITLE62=Naamloze track
TTITLE63=Naamloze track
TTITLE64=Naamloze track
TTITLE65=Naamloze track
TTITLE66=Naamloze track
TTITLE67=Naamloze track
TTITLE68=Harry Hijghengst - Spoelen
EXTD=
EXTT0=
EXTT1=
EXTT2=
EXTT3=
EXTT4=
EXTT5=
EXTT6=
EXTT7=
EXTT8=
EXTT9=
EXTT10=
EXTT11=
EXTT12=
EXTT13=
EXTT14=
EXTT15=
EXTT16=
EXTT17=
EXTT18=
EXTT19=
EXTT20=
EXTT21=
EXTT22=
EXTT23=
EXTT24=
EXTT25=
EXTT26=
EXTT27=
EXTT28=
EXTT29=
EXTT30=
EXTT31=
EXTT32=
EXTT33=
EXTT34=
EXTT35=
EXTT36=
EXTT37=
EXTT38=
EXTT39=
EXTT40=
EXTT41=
EXTT42=
EXTT43=
EXTT44=
EXTT45=
EXTT46=
EXTT47=
EXTT48=
EXTT49=
EXTT50=
EXTT51=
EXTT52=
EXTT53=
EXTT54=
EXTT55=
EXTT56=
EXTT57=
EXTT58=
EXTT59=
EXTT60=
EXTT61=
EXTT62=
EXTT63=
EXTT64=
EXTT65=
EXTT66=
EXTT67=
EXTT68=
PLAYORDER=
